<svg width="136" height="104" viewBox="0 0 136 104" fill="none" xmlns="http://www.w3.org/2000/svg">
<g filter="url(#filter0_d_11_57)">
<path d="M16.4797 25.2671C16.5493 26.2319 16.1676 27.1745 15.4463 27.8192C8.71868 33.8318 7.12195 44.312 7.12195 53.5888C7.12195 63.8406 13.4333 73.5205 24.4622 80.7834C35.4656 88.0295 50.8496 92.6132 68 92.6132C85.1504 92.6132 100.534 88.0295 111.538 80.7834C122.567 73.5205 128.878 63.8406 128.878 53.5888C128.878 49.3782 127.814 44.1046 125.789 39.0325C123.761 33.9514 120.875 29.3352 117.432 26.2582C116.681 25.5869 116.3 24.5943 116.409 23.5928L116.409 23.5923L116.409 23.5843L116.413 23.5463C116.415 23.5298 116.417 23.5089 116.42 23.4839C116.423 23.4562 116.426 23.4234 116.43 23.3857C116.444 23.2422 116.465 23.0275 116.49 22.7512C116.539 22.1982 116.605 21.4 116.667 20.4323C116.792 18.49 116.902 15.8966 116.851 13.246C116.799 10.5632 116.584 7.97185 116.113 5.97301C115.878 4.97354 115.607 4.25057 115.344 3.77674C115.227 3.5671 115.134 3.4458 115.076 3.38012C114.951 3.3736 114.684 3.37012 114.226 3.43052C113.394 3.54014 112.291 3.80926 110.95 4.2402C108.28 5.09831 105.056 6.46993 101.884 7.95691C98.7311 9.43509 95.7135 10.9878 93.4783 12.1744C92.3625 12.7667 91.4458 13.2657 90.8098 13.6156C90.4919 13.7905 90.2443 13.928 90.0773 14.0212C89.9939 14.0678 89.9305 14.1033 89.8886 14.1268L89.842 14.153L89.8311 14.1592L89.8288 14.1605L89.8286 14.1606L16.4797 25.2671ZM16.4797 25.2671L16.4797 25.2664C16.4797 25.2666 16.4797 25.2668 16.4797 25.2671Z" fill="white" stroke="#892933" stroke-width="6.2439" stroke-linejoin="round"/>
<path d="M52.3902 52.028H60.1951C60.1951 52.028 57.1661 54.7226 55.5122 56.7109M55.5122 56.7109C52.3693 60.4894 49.2683 67.6378 49.2683 67.6378M55.5122 56.7109L63.317 67.6378" stroke="#892933" stroke-width="6.2439" stroke-linecap="round" stroke-linejoin="round"/>
<circle cx="32.0975" cy="45.7841" r="6.2439" fill="#892933"/>
<circle cx="85.1708" cy="45.7841" r="6.2439" fill="#892933"/>
</g>
<defs>
<filter id="filter0_d_11_57" x="0" y="0" width="136" height="103.735" filterUnits="userSpaceOnUse" color-interpolation-filters="sRGB">
<feFlood flood-opacity="0" result="BackgroundImageFix"/>
<feColorMatrix in="SourceAlpha" type="matrix" values="0 0 0 0 0 0 0 0 0 0 0 0 0 0 0 0 0 0 127 0" result="hardAlpha"/>
<feOffset dy="4"/>
<feGaussianBlur stdDeviation="2"/>
<feComposite in2="hardAlpha" operator="out"/>
<feColorMatrix type="matrix" values="0 0 0 0 0 0 0 0 0 0 0 0 0 0 0 0 0 0 0.25 0"/>
<feBlend mode="normal" in2="BackgroundImageFix" result="effect1_dropShadow_11_57"/>
<feBlend mode="normal" in="SourceGraphic" in2="effect1_dropShadow_11_57" result="shape"/>
</filter>
</defs>
</svg>
