<svg width="270" height="270" viewBox="0 0 270 270" fill="none" xmlns="http://www.w3.org/2000/svg">
<circle cx="135" cy="135" r="135" fill="#FFD133"/>
<path d="M102.025 47.9028C101.242 45.7917 102.317 43.4371 104.459 42.7433C124.501 36.2518 146.149 36.4168 166.145 43.2783C187.429 50.5816 205.531 65.022 217.382 84.1502C229.233 103.279 234.103 125.917 231.166 148.227C228.406 169.186 218.916 188.643 204.179 203.699C202.604 205.308 200.017 205.222 198.476 203.581C196.934 201.94 197.021 199.367 198.59 197.751C211.959 183.989 220.568 166.256 223.082 147.162C225.774 126.719 221.311 105.973 210.451 88.4444C199.591 70.9157 183.003 57.683 163.499 50.9904C145.283 44.7397 125.571 44.5535 107.296 50.3957C105.151 51.0813 102.808 50.0139 102.025 47.9028Z" fill="#892933"/>
<circle cx="135" cy="135" r="85" fill="#F4EBE9" stroke="white" stroke-width="8"/>
<path d="M83.4797 113.267C83.5493 114.232 83.1676 115.175 82.4463 115.819C75.7187 121.832 74.122 132.312 74.122 141.589C74.122 151.841 80.4333 161.52 91.4622 168.783C102.466 176.03 117.85 180.613 135 180.613C152.15 180.613 167.534 176.03 178.538 168.783C189.567 161.52 195.878 151.841 195.878 141.589C195.878 137.378 194.814 132.105 192.789 127.032C190.761 121.951 187.875 117.335 184.432 114.258C183.681 113.587 183.3 112.594 183.409 111.593L183.409 111.592L183.409 111.584L183.413 111.546C183.415 111.53 183.417 111.509 183.42 111.484C183.423 111.456 183.426 111.423 183.43 111.386C183.444 111.242 183.465 111.028 183.49 110.751C183.539 110.198 183.605 109.4 183.667 108.432C183.792 106.49 183.902 103.897 183.851 101.246C183.799 98.5632 183.584 95.9718 183.113 93.973C182.878 92.9735 182.607 92.2506 182.344 91.7767C182.227 91.5671 182.134 91.4458 182.076 91.3801C181.951 91.3736 181.684 91.3701 181.226 91.4305C180.394 91.5401 179.291 91.8093 177.95 92.2402C175.28 93.0983 172.056 94.4699 168.884 95.9569C165.731 97.4351 162.713 98.9878 160.478 100.174C159.363 100.767 158.446 101.266 157.81 101.616C157.492 101.79 157.244 101.928 157.077 102.021C156.994 102.068 156.931 102.103 156.889 102.127L156.842 102.153L156.831 102.159L156.829 102.16L156.829 102.161L83.4797 113.267ZM83.4797 113.267L83.4797 113.266C83.4797 113.267 83.4797 113.267 83.4797 113.267Z" fill="white" stroke="#892933" stroke-width="6.2439" stroke-linejoin="round"/>
<path d="M119.39 140.028H127.195C127.195 140.028 124.166 142.723 122.512 144.711M122.512 144.711C119.369 148.489 116.268 155.638 116.268 155.638M122.512 144.711L130.317 155.638" stroke="#892933" stroke-width="6.2439" stroke-linecap="round" stroke-linejoin="round"/>
<circle cx="99.0975" cy="133.784" r="6.2439" fill="#892933"/>
<circle cx="152.171" cy="133.784" r="6.2439" fill="#892933"/>
</svg>
