<svg width="128" height="96" viewBox="0 0 128 96" fill="none" xmlns="http://www.w3.org/2000/svg">
    <path d="M112.409 23.5928C112.3 24.5943 112.681 25.5869 113.432 26.2582C116.875 29.3352 119.761 33.9514 121.789 39.0325C123.814 44.1046 124.878 49.3782 124.878 53.5888C124.878 63.8406 118.567 73.5205 107.538 80.7834C96.5344 88.0295 81.1504 92.6132 64 92.6132C46.8496 92.6132 31.4656 88.0295 20.4622 80.7834C9.43332 73.5205 3.12195 63.8406 3.12195 53.5888C3.12195 44.312 4.71868 33.8318 11.4463 27.8192C12.1676 27.1745 12.5493 26.2319 12.4797 25.2671L12.4791 25.2581L12.4764 25.2193C12.474 25.1835 12.4704 25.1279 12.4658 25.0539C12.4565 24.9058 12.4435 24.6838 12.4289 24.3976C12.3996 23.8248 12.3642 22.9968 12.3406 21.9905C12.2932 19.9709 12.294 17.2655 12.4808 14.4785C12.6695 11.6633 13.0397 8.90419 13.6792 6.71957C14.3736 4.34727 15.151 3.46889 15.5337 3.26198C15.8349 3.09911 16.6449 2.93483 18.3941 3.67433C20.0523 4.37535 21.9359 5.6399 23.7938 7.14131C25.6229 8.61946 27.2889 10.2137 28.5071 11.4509C29.1129 12.0662 29.6006 12.5857 29.9339 12.9481C30.1004 13.1291 30.228 13.2705 30.312 13.3645C30.3541 13.4114 30.3852 13.4465 30.4048 13.4688L30.4256 13.4924L30.4288 13.4959C31.2805 14.4707 32.6459 14.8196 33.8605 14.3718C40.8804 11.7837 47.708 11.8749 56.4193 11.9913C58.3282 12.0168 60.3274 12.0435 62.439 12.0435C69.8744 12.0435 76.9899 12.9056 83.5663 14.4789C84.3335 14.6624 85.142 14.5485 85.8288 14.1605L85.8311 14.1592L85.842 14.153L85.8886 14.1268L86.0773 14.0212C86.2443 13.928 86.4919 13.7905 86.8098 13.6156C87.4458 13.2657 88.3625 12.7667 89.4783 12.1744C91.7135 10.9878 94.7311 9.43508 97.884 7.9569C101.056 6.46992 104.28 5.0983 106.95 4.24019C108.291 3.80925 109.394 3.54013 110.226 3.43051C110.684 3.37011 110.951 3.37359 111.076 3.38011C111.134 3.44579 111.227 3.56709 111.344 3.77673C111.607 4.25056 111.878 4.97353 112.113 5.973C112.584 7.97184 112.799 10.5632 112.851 13.246C112.902 15.8966 112.792 18.49 112.667 20.4323C112.605 21.4 112.539 22.1982 112.49 22.7512C112.466 23.0209 112.445 23.2319 112.431 23.3753L112.43 23.3857C112.426 23.4234 112.423 23.4562 112.42 23.4839C112.417 23.5089 112.415 23.5298 112.413 23.5463L112.409 23.5843V23.5928Z" stroke="#892933" stroke-width="6.2439" stroke-linejoin="round"/>
    <path d="M51.5122 56.7109L59.317 67.6378M48.3902 52.028H56.1951C56.1951 52.028 53.166 54.7226 51.5122 56.7109L48.3902 52.028ZM51.5122 56.7109C48.3693 60.4894 45.2682 67.6378 45.2682 67.6378L51.5122 56.7109Z" stroke="#892933" stroke-width="6.2439" stroke-linecap="round" stroke-linejoin="round"/>
    <path d="M28.0975 52.028C31.5459 52.028 34.3414 49.2325 34.3414 45.7841C34.3414 42.3357 31.5459 39.5402 28.0975 39.5402C24.6491 39.5402 21.8536 42.3357 21.8536 45.7841C21.8536 49.2325 24.6491 52.028 28.0975 52.028Z" fill="#892933"/>
    <path d="M81.1708 52.028C84.6192 52.028 87.4147 49.2325 87.4147 45.7841C87.4147 42.3357 84.6192 39.5402 81.1708 39.5402C77.7224 39.5402 74.9269 42.3357 74.9269 45.7841C74.9269 49.2325 77.7224 52.028 81.1708 52.028Z" fill="#892933"/>
</svg>