<svg width="270" height="270" viewBox="0 0 270 270" fill="none" xmlns="http://www.w3.org/2000/svg">
<circle cx="135" cy="135" r="135" fill="#FFD133"/>
<path d="M102.025 47.9028C101.242 45.7917 102.317 43.4371 104.459 42.7433C124.501 36.2518 146.149 36.4168 166.145 43.2783C187.429 50.5816 205.531 65.022 217.382 84.1502C229.233 103.279 234.103 125.917 231.166 148.227C228.406 169.186 218.916 188.643 204.179 203.699C202.604 205.308 200.017 205.222 198.476 203.581C196.934 201.94 197.021 199.367 198.59 197.751C211.959 183.989 220.568 166.256 223.082 147.162C225.774 126.719 221.311 105.973 210.451 88.4444C199.591 70.9157 183.003 57.683 163.499 50.9904C145.283 44.7397 125.571 44.5535 107.296 50.3957C105.151 51.0813 102.808 50.0139 102.025 47.9028Z" fill="#892933"/>
<circle cx="135" cy="135" r="85" fill="#F4EBE9" stroke="white" stroke-width="8"/>
<path d="M183.535 110.498V110.499L183.313 112.542L184.847 113.913C188.158 116.872 190.978 121.359 192.974 126.358C194.965 131.346 196 136.509 196 140.589C196 150.451 189.928 159.889 179.055 167.05C168.214 174.189 153.003 178.735 136 178.735C118.997 178.735 103.786 174.189 92.9451 167.05C82.0717 159.889 76 150.451 76 140.589C76 131.332 77.6113 121.212 84.0314 115.474L85.4971 114.164L85.3555 112.204L85.3554 112.203L85.355 112.197L85.3525 112.16C85.3502 112.126 85.3466 112.072 85.3421 111.999C85.3331 111.854 85.3202 111.635 85.3058 111.353C85.2769 110.787 85.2418 109.967 85.2184 108.97C85.1714 106.967 85.1724 104.289 85.3569 101.537C85.5438 98.749 85.9083 96.0622 86.5219 93.9663C86.8273 92.9227 87.158 92.1546 87.4738 91.6345C87.7575 91.1675 87.9426 91.0411 87.955 91.0325C87.9621 91.0292 87.9804 91.022 88.0186 91.0149C88.0737 91.0046 88.1817 90.9928 88.3575 91.0055C88.7293 91.0324 89.2899 91.1608 90.0522 91.4831C91.6006 92.1377 93.4103 93.344 95.2419 94.8242C97.0366 96.2746 98.6774 97.844 99.8814 99.0669C100.479 99.6742 100.96 100.186 101.288 100.542C101.451 100.72 101.576 100.859 101.658 100.95C101.698 100.995 101.728 101.029 101.747 101.05L101.766 101.072L101.767 101.073L101.768 101.074L101.769 101.075L103.579 103.149L106.164 102.196C113.019 99.6685 119.655 99.7557 128.352 99.8698C130.273 99.8951 132.293 99.9216 134.439 99.9216C141.807 99.9216 148.854 100.776 155.362 102.333L156.892 102.699L158.26 101.925L158.263 101.924L158.273 101.918L158.319 101.892C158.336 101.883 158.357 101.871 158.382 101.857C158.416 101.837 158.458 101.815 158.505 101.788C158.671 101.695 158.917 101.559 159.233 101.385C159.866 101.037 160.779 100.54 161.89 99.9499C164.117 98.7674 167.121 97.2219 170.257 95.7519C173.416 94.2707 176.601 92.9173 179.218 92.0761C180.534 91.6531 181.581 91.401 182.34 91.301C182.443 91.2874 182.534 91.2777 182.613 91.2707C182.814 91.6551 183.046 92.2738 183.258 93.1743C183.708 95.0841 183.922 97.6037 183.973 100.263C184.024 102.881 183.915 105.448 183.79 107.376C183.729 108.335 183.664 109.126 183.615 109.673C183.59 109.946 183.57 110.158 183.556 110.299C183.549 110.369 183.543 110.422 183.54 110.455L183.536 110.491L183.535 110.498Z" fill="white"/>
<path d="M182.42 90.964C182.417 90.9603 182.415 90.9582 182.415 90.9582M183.535 110.498V110.499L183.313 112.542L184.847 113.913C188.158 116.872 190.978 121.359 192.974 126.358C194.965 131.346 196 136.509 196 140.589C196 150.451 189.928 159.889 179.055 167.05C168.214 174.189 153.003 178.735 136 178.735C118.997 178.735 103.786 174.189 92.9451 167.05C82.0717 159.889 76 150.451 76 140.589C76 131.332 77.6113 121.212 84.0314 115.474L85.4971 114.164L85.3555 112.204L85.3554 112.203L85.355 112.197L85.3525 112.16C85.3502 112.126 85.3466 112.072 85.3421 111.999C85.3331 111.854 85.3202 111.635 85.3058 111.353C85.2769 110.787 85.2418 109.967 85.2184 108.97C85.1714 106.967 85.1724 104.289 85.3569 101.537C85.5438 98.749 85.9083 96.0622 86.5219 93.9663C86.8273 92.9227 87.158 92.1546 87.4738 91.6345C87.7575 91.1675 87.9426 91.0411 87.955 91.0325C87.9621 91.0292 87.9804 91.022 88.0186 91.0149C88.0737 91.0046 88.1817 90.9928 88.3575 91.0055C88.7293 91.0324 89.2899 91.1608 90.0522 91.4831C91.6006 92.1377 93.4103 93.344 95.2419 94.8242C97.0366 96.2746 98.6774 97.844 99.8814 99.0669C100.479 99.6742 100.96 100.186 101.288 100.542C101.451 100.72 101.576 100.859 101.658 100.95C101.698 100.995 101.728 101.029 101.747 101.05L101.766 101.072L101.767 101.073L101.768 101.074L101.769 101.075L103.579 103.149L106.164 102.196C113.018 99.6685 119.655 99.7557 128.352 99.8698C130.273 99.8951 132.293 99.9216 134.439 99.9216C141.807 99.9216 148.854 100.776 155.362 102.333L156.892 102.699L158.26 101.925L158.263 101.924L158.273 101.918L158.319 101.892C158.336 101.883 158.357 101.871 158.382 101.857C158.416 101.837 158.458 101.815 158.505 101.788C158.671 101.695 158.917 101.559 159.233 101.385C159.866 101.037 160.779 100.54 161.89 99.9499C164.117 98.7674 167.121 97.2219 170.257 95.7519C173.416 94.2707 176.601 92.9173 179.218 92.0761C180.534 91.6531 181.581 91.401 182.34 91.301C182.443 91.2874 182.534 91.2777 182.613 91.2707C182.814 91.6551 183.046 92.2738 183.258 93.1743C183.708 95.0841 183.922 97.6037 183.973 100.263C184.024 102.881 183.915 105.448 183.79 107.376C183.729 108.335 183.664 109.126 183.615 109.673C183.59 109.946 183.57 110.158 183.556 110.299C183.549 110.369 183.543 110.422 183.54 110.455L183.536 110.491L183.535 110.498Z" stroke="#892933" stroke-width="8"/>
<path d="M119.39 140.028H127.195C127.195 140.028 124.166 142.723 122.512 144.711M122.512 144.711C119.369 148.489 116.268 155.638 116.268 155.638M122.512 144.711L130.317 155.638" stroke="#892933" stroke-width="6.2439" stroke-linecap="round" stroke-linejoin="round"/>
<circle cx="99.0975" cy="133.784" r="6.2439" fill="#892933"/>
<circle cx="152.171" cy="133.784" r="6.2439" fill="#892933"/>
<circle cx="74.5" cy="69.5" r="22.5" fill="white"/>
<rect x="54" y="190" width="161" height="46" rx="18" fill="#FFDD33" stroke="#892933" stroke-width="4"/>
</svg>
