<svg width="50" height="50" viewBox="0 0 50 50" fill="none" xmlns="http://www.w3.org/2000/svg">
<path d="M25 42.0282C38.8071 42.0282 50 34.5327 50 25.2867C50 21.5733 48.177 16.2822 45.122 13.5057C45.122 13.5057 46.008 5.22456 43.9024 4.20489C42.0454 3.30559 32.9268 8.54526 32.9268 8.54526C30.2631 7.89726 27.3883 7.54386 24.3902 7.54386C19.962 7.54386 16.4123 7.19278 12.8049 8.54528C12.8049 8.54528 7.92683 2.8638 5.4878 4.20488C3.04878 5.54597 3.65854 14.1258 3.65854 14.1258C0.60351 16.9023 0 21.5733 0 25.2867C0 34.5327 11.1929 42.0282 25 42.0282Z" fill="white"/>
<path d="M19.4053 24.4225H22.144C22.144 24.4225 21.0811 25.6382 20.5008 26.5352M20.5008 26.5352C19.398 28.2399 18.3099 31.4648 18.3099 31.4648M20.5008 26.5352L23.2395 31.4648" stroke="#FFC233" stroke-width="4" stroke-linecap="round" stroke-linejoin="round"/>
<ellipse cx="10.9155" cy="22.3099" rx="2.46479" ry="2.11268" fill="#FFC233"/>
<circle cx="31.6902" cy="22.3099" r="2.11268" fill="#FFC233"/>
</svg>
