<svg width="54" height="41" viewBox="0 0 54 41" fill="none" xmlns="http://www.w3.org/2000/svg">
<path d="M46.7829 9.88367C46.7829 9.88366 46.7829 9.88364 46.7829 9.88363L46.7832 9.8814L46.7847 9.8668L46.7913 9.802C46.7971 9.74347 46.8057 9.65507 46.8159 9.54079C46.8364 9.31203 46.8636 8.9807 46.8895 8.57854C46.9415 7.76993 46.9871 6.69491 46.966 5.60054C46.9445 4.48598 46.8549 3.44535 46.6717 2.66732C46.6139 2.42194 46.554 2.23474 46.4995 2.09746C46.2085 2.14351 45.8131 2.24152 45.3162 2.4012C44.2285 2.75083 42.8969 3.31609 41.5679 3.93921C40.2506 4.55681 38.9876 5.2066 38.0503 5.70419C37.5828 5.95238 37.1989 6.16133 36.9329 6.30763C36.8 6.38076 36.6967 6.43815 36.6273 6.47687L36.5493 6.52057L36.5303 6.53121L36.5261 6.53361L36.5254 6.53401C36.5253 6.53404 36.5253 6.53407 36.5252 6.5341C36.094 6.77771 35.5866 6.84907 35.1049 6.73384C32.3805 6.08209 29.4289 5.72409 26.3415 5.72409C25.4255 5.72409 24.5663 5.71296 23.7527 5.70242C20.0883 5.65494 17.3477 5.61943 14.5074 6.66663C13.745 6.94772 12.8883 6.72931 12.3535 6.11764C12.3535 6.11763 12.3535 6.11762 12.3535 6.11761C12.3534 6.11754 12.3533 6.11748 12.3533 6.11741L12.353 6.11709C12.3529 6.11694 12.3527 6.11678 12.3526 6.11663L12.3525 6.11653L12.345 6.10802L12.3085 6.06702C12.2749 6.02943 12.2231 5.97199 12.155 5.89793C12.0185 5.74961 11.8178 5.53581 11.5681 5.28212C11.0645 4.77066 10.3802 4.11628 9.63371 3.51302C8.86917 2.89516 8.12864 2.40429 7.50955 2.14257C7.13584 1.98458 6.9361 1.96182 6.85455 1.96098C6.79316 2.03832 6.59549 2.30741 6.38821 3.01552C6.13744 3.87224 5.98541 4.98322 5.90713 6.15112C5.83002 7.30135 5.82951 8.42213 5.84924 9.26213C5.85905 9.67998 5.87373 10.0233 5.88581 10.2599C5.89185 10.3781 5.89721 10.4694 5.90097 10.5296L5.90526 10.5961L5.90628 10.6109L5.90641 10.6129C5.90643 10.613 5.90644 10.6132 5.90645 10.6134M46.7829 9.88367L48.7317 10.0957C52.0311 13.0445 54 18.6639 54 22.6078C54 32.4277 41.9117 40.3883 27 40.3883C12.0883 40.3883 0 32.4277 0 22.6078C0 18.6639 0.651792 13.703 3.95122 10.7542C5.90641 10.6129 5.90643 10.6131 5.90645 10.6134M46.7829 9.88367C46.7145 10.5125 46.9538 11.1358 47.4254 11.5573C48.7815 12.7693 49.9509 14.6217 50.7825 16.7053C51.6119 18.7833 52.0397 20.9269 52.0397 22.6078C52.0397 26.647 49.5527 30.5542 45.0137 33.5433C40.4908 36.5218 34.1276 38.428 27 38.428C19.8724 38.428 13.5092 36.5218 8.98626 33.5433C4.44735 30.5542 1.96029 26.647 1.96029 22.6078C1.96029 18.7089 2.64458 14.5511 5.25752 12.2158C5.71042 11.811 5.95009 11.2192 5.90645 10.6134M46.7829 9.88367L5.90645 10.6134M46.8274 2.06838C46.8274 2.0684 46.8263 2.06834 46.8243 2.06814L46.8274 2.06838ZM46.3765 1.84988C46.3737 1.8466 46.3724 1.84477 46.3724 1.84467C46.3724 1.84457 46.3738 1.84622 46.3765 1.84988Z" fill="white" stroke="#892933" stroke-width="3.92059" stroke-linejoin="round"/>
<path d="M20.4146 21.9494H23.7073C23.7073 21.9494 22.4294 23.0861 21.7317 23.925M21.7317 23.925C20.4058 25.519 19.0975 28.5347 19.0975 28.5347M21.7317 23.925L25.0244 28.5347" stroke="#892933" stroke-width="3.92059" stroke-linecap="round" stroke-linejoin="round"/>
<circle cx="11.8536" cy="19.3153" r="2.63415" fill="#892933"/>
<circle cx="34.2439" cy="19.3153" r="2.63415" fill="#892933"/>
</svg>
