<svg width="54" height="47" viewBox="0 0 54 47" fill="none" xmlns="http://www.w3.org/2000/svg">
<path d="M25.6101 7.25805C26.3895 8.02965 27.6449 8.02965 28.4243 7.25805L29.901 5.79603C32.3527 3.36892 35.6013 2.034 39.0718 2.034C42.5447 2.034 45.7812 3.35919 48.2312 5.78469C50.6794 8.20848 52.0098 11.4124 51.9999 14.8298V14.8355C51.9999 18.2527 50.6596 21.4591 48.2093 23.8854C48.209 23.8857 48.2086 23.8861 48.2083 23.8864L26.9892 44.8153L5.80316 23.8411C3.3482 21.4106 2.00006 18.2136 2.00007 14.8015L2.00005 14.7958C1.99017 11.3823 3.32917 8.17729 5.78026 5.75069C8.22019 3.33515 11.4687 2 14.9282 2C18.3964 2 21.6572 3.34465 24.1104 5.77336L25.6101 7.25805Z" fill="#FFC233" stroke="#892933" stroke-width="4" stroke-linejoin="round"/>
</svg>
