<svg width="195" height="200" viewBox="0 0 195 200" fill="none" xmlns="http://www.w3.org/2000/svg">
<path d="M65.0249 9.90277C64.2423 7.79166 65.317 5.43711 67.459 4.74334C87.5014 -1.7482 109.149 -1.58317 129.145 5.27828C150.429 12.5816 168.531 27.022 180.382 46.1502C192.233 65.2785 197.103 87.9172 194.166 110.227C191.406 131.186 181.916 150.643 167.179 165.699C165.604 167.308 163.017 167.222 161.476 165.581C159.934 163.94 160.021 161.367 161.59 159.751C174.959 145.989 183.568 128.256 186.082 109.162C188.774 88.7185 184.311 67.9731 173.451 50.4444C162.591 32.9157 146.003 19.683 126.499 12.9904C108.283 6.73974 88.5711 6.55348 70.2958 12.3957C68.1512 13.0813 65.8076 12.0139 65.0249 9.90277Z" fill="#892933"/>
<circle cx="98" cy="97" r="85" fill="#F4EBE9" stroke="white" stroke-width="8"/>
<path d="M148.432 76.2582C147.681 75.5869 147.3 74.5943 147.409 73.5928L147.409 73.5923L147.409 73.5843L147.413 73.5463C147.415 73.5298 147.417 73.5089 147.42 73.4839C147.423 73.4562 147.426 73.4234 147.43 73.3857C147.444 73.2422 147.465 73.0275 147.49 72.7512C147.539 72.1982 147.605 71.4 147.667 70.4323C147.792 68.49 147.902 65.8966 147.851 63.246C147.799 60.5632 147.584 57.9718 147.113 55.973C146.878 54.9735 146.607 54.2506 146.344 53.7767C146.227 53.5671 146.134 53.4458 146.076 53.3801C145.951 53.3736 145.684 53.3701 145.226 53.4305C144.394 53.5401 143.291 53.8093 141.95 54.2402C139.28 55.0983 136.056 56.4699 132.884 57.9569C129.731 59.4351 126.713 60.9878 124.478 62.1744C123.363 62.7667 122.446 63.2657 121.81 63.6156C121.492 63.7905 121.244 63.928 121.077 64.0212C120.994 64.0678 120.931 64.1033 120.889 64.1268L120.842 64.153L120.831 64.1592L120.829 64.1605L120.829 64.1606L148.432 76.2582ZM148.432 76.2582C151.875 79.3352 154.761 83.9514 156.789 89.0325C158.814 94.1046 159.878 99.3782 159.878 103.589C159.878 113.841 153.567 123.52 142.538 130.783C131.534 138.03 116.15 142.613 99 142.613C81.8496 142.613 66.4656 138.03 55.4622 130.783C44.4333 123.52 38.122 113.841 38.122 103.589C38.122 94.312 39.7187 83.8318 46.4463 77.8192C47.1676 77.1745 47.5493 76.2319 47.4797 75.2671M148.432 76.2582L47.4797 75.2671M47.4797 75.2671C47.4797 75.2668 47.4797 75.2666 47.4797 75.2664L47.4797 75.2661L47.4791 75.2581L47.4764 75.2193C47.474 75.1835 47.4704 75.1279 47.4658 75.0539C47.4565 74.9058 47.4435 74.6838 47.4289 74.3976C47.3996 73.8248 47.3642 72.9968 47.3406 71.9905C47.2932 69.9709 47.294 67.2655 47.4808 64.4785C47.6695 61.6633 48.0397 58.9042 48.6792 56.7196C49.3736 54.3473 50.151 53.4689 50.5337 53.262C50.8349 53.0991 51.6449 52.9348 53.3941 53.6743C55.0523 54.3754 56.9359 55.6399 58.7938 57.1413C60.6229 58.6195 62.2889 60.2137 63.5071 61.4509C64.1129 62.0662 64.6006 62.5857 64.9339 62.9481C65.1004 63.1291 65.228 63.2705 65.312 63.3645C65.3541 63.4114 65.3852 63.4465 65.4048 63.4688L65.4256 63.4924L65.4288 63.4959C65.429 63.4961 65.4291 63.4964 65.4293 63.4966C65.4294 63.4966 65.4294 63.4966 65.4294 63.4967C65.4294 63.4967 65.4294 63.4967 65.4294 63.4967C66.2811 64.4715 67.6459 64.8196 68.8605 64.3718C75.8804 61.7837 82.708 61.8749 91.4193 61.9913C93.3282 62.0168 95.3274 62.0435 97.439 62.0435C104.874 62.0435 111.99 62.9056 118.566 64.4789C119.333 64.6624 120.142 64.5487 120.828 64.1607L44.3659 75.4914C47.4797 75.2664 47.4797 75.2668 47.4797 75.2671Z" fill="white" stroke="#892933" stroke-width="6.2439" stroke-linejoin="round"/>
<path d="M83.3902 102.028H91.1951C91.1951 102.028 88.1661 104.723 86.5122 106.711M86.5122 106.711C83.3693 110.489 80.2683 117.638 80.2683 117.638M86.5122 106.711L94.317 117.638" stroke="#892933" stroke-width="6.2439" stroke-linecap="round" stroke-linejoin="round"/>
<circle cx="63.0975" cy="95.7841" r="6.2439" fill="#892933"/>
<circle cx="116.171" cy="95.7841" r="6.2439" fill="#892933"/>
<circle cx="37.5" cy="31.5" r="22.5" fill="white"/>
<rect x="17" y="152" width="161" height="46" rx="18" fill="#FFDD33" stroke="#892933" stroke-width="4"/>
</svg>
