<svg width="270" height="270" viewBox="0 0 270 270" fill="none" xmlns="http://www.w3.org/2000/svg">
<circle cx="135" cy="135" r="135" fill="#FFD133"/>
<path d="M102.025 47.9028C101.242 45.7917 102.317 43.4371 104.459 42.7433C124.501 36.2518 146.149 36.4168 166.145 43.2783C187.429 50.5816 205.531 65.022 217.382 84.1502C229.233 103.279 234.103 125.917 231.166 148.227C228.406 169.186 218.916 188.643 204.179 203.699C202.604 205.308 200.017 205.222 198.476 203.581V203.581C196.934 201.94 197.021 199.367 198.59 197.751C211.959 183.989 220.568 166.256 223.082 147.162C225.774 126.719 221.311 105.973 210.451 88.4444C199.591 70.9157 183.003 57.683 163.499 50.9904C145.283 44.7397 125.571 44.5535 107.296 50.3957C105.151 51.0813 102.808 50.0139 102.025 47.9028V47.9028Z" fill="#892933"/>
<circle cx="135" cy="135" r="85" fill="#F4EBE9" stroke="white" stroke-width="8"/>
<path d="M84.4797 113.267C84.5493 114.232 84.1676 115.175 83.4463 115.819C76.7187 121.832 75.122 132.312 75.122 141.589C75.122 151.841 81.4333 161.52 92.4622 168.783C103.466 176.03 118.85 180.613 136 180.613C153.15 180.613 168.534 176.03 179.538 168.783C190.567 161.52 196.878 151.841 196.878 141.589C196.878 137.378 195.814 132.105 193.789 127.032C191.761 121.951 188.875 117.335 185.432 114.258C184.681 113.587 184.3 112.594 184.409 111.593L184.409 111.592L184.409 111.584L184.413 111.546C184.415 111.53 184.417 111.509 184.42 111.484C184.423 111.456 184.426 111.423 184.43 111.386C184.444 111.242 184.465 111.028 184.49 110.751C184.539 110.198 184.605 109.4 184.667 108.432C184.792 106.49 184.902 103.897 184.851 101.246C184.799 98.5632 184.584 95.9718 184.113 93.973C183.878 92.9735 183.607 92.2506 183.344 91.7767C183.227 91.5671 183.134 91.4458 183.076 91.3801C182.951 91.3736 182.684 91.3701 182.226 91.4305C181.394 91.5401 180.291 91.8093 178.95 92.2402C176.28 93.0983 173.056 94.4699 169.884 95.9569C166.731 97.4351 163.713 98.9878 161.478 100.174C160.363 100.767 159.446 101.266 158.81 101.616C158.492 101.79 158.244 101.928 158.077 102.021C157.994 102.068 157.931 102.103 157.889 102.127L157.842 102.153L157.831 102.159L157.829 102.16L157.829 102.161L84.4797 113.267ZM84.4797 113.267L84.4797 113.266C84.4797 113.267 84.4797 113.267 84.4797 113.267Z" fill="white" stroke="#892933" stroke-width="6.2439" stroke-linejoin="round"/>
<path d="M120.39 140.028H128.195C128.195 140.028 125.166 142.723 123.512 144.711M123.512 144.711C120.369 148.489 117.268 155.638 117.268 155.638M123.512 144.711L131.317 155.638" stroke="#892933" stroke-width="6.2439" stroke-linecap="round" stroke-linejoin="round"/>
<circle cx="100.098" cy="133.784" r="6.2439" fill="#892933"/>
<circle cx="153.171" cy="133.784" r="6.2439" fill="#892933"/>
<circle cx="74.5" cy="69.5" r="22.5" fill="white"/>
<rect x="54" y="190" width="161" height="46" rx="18" fill="#FFDD33" stroke="#892933" stroke-width="4"/>
</svg>
